<svg width="192" height="192" viewBox="0 0 192 192" xmlns="http://www.w3.org/2000/svg">
  <!-- Background circle -->
  <circle cx="96" cy="96" r="96" fill="#6C4DD6"/>
  
  <!-- App icon design - Budget/Money theme -->
  <g transform="translate(96, 96)">
    <!-- Dollar sign -->
    <path d="M -8 -40 L -8 -50 L 8 -50 L 8 -40 M -8 40 L -8 50 L 8 50 L 8 40" 
          stroke="white" stroke-width="6" fill="none" stroke-linecap="round"/>
    
    <!-- S shape for dollar -->
    <path d="M -20 -30 Q -20 -40 -10 -40 L 10 -40 Q 20 -40 20 -30 Q 20 -20 10 -20 L -10 -20 Q -20 -20 -20 -10 Q -20 0 -10 0 L 10 0 Q 20 0 20 10 Q 20 20 10 20 L -10 20 Q -20 20 -20 30"
          stroke="white" stroke-width="6" fill="none" stroke-linecap="round"/>
    
    <!-- Budget chart lines -->
    <g transform="translate(30, -20)">
      <line x1="0" y1="30" x2="0" y2="10" stroke="white" stroke-width="3"/>
      <line x1="8" y1="30" x2="8" y2="5" stroke="white" stroke-width="3"/>
      <line x1="16" y1="30" x2="16" y2="15" stroke="white" stroke-width="3"/>
    </g>
  </g>
  
  <!-- App name hint -->
  <text x="96" y="170" text-anchor="middle" fill="white" font-family="Arial, sans-serif" font-size="14" font-weight="bold">Xubudget</text>
</svg>